<svg width="800" height="200" xmlns="http://www.w3.org/2000/svg">
 <metadata id="metadata3747">image/svg+xml</metadata>

 <g>
  <title>background</title>
  <rect fill="none" id="canvas_background" height="402" width="582" y="-1" x="-1"/>
 </g>
 <g>
  <title>Layer 1</title>
  <path id="path1" fill="none" stroke="#c00000" d="m281.67,57.14c23.61,-14.4 52.65,-32 65.07,-39.38c3.85,0 23.09,0 57.73,0l8.46,7.46c55.11,-0.01 85.73,-0.01 91.86,-0.01c6.2,-3.11 14.07,-3.11 17.56,0c11.6,10.37 104.46,93.3 116.07,103.67c8.76,6.21 21.23,11.02 27.86,10.74c12.38,0 111.44,0 123.82,0c5.08,0.03 9.22,2.94 9.2,6.5c-0.01,4.45 -0.09,40.03 -0.09,44.48c0.05,3.92 -4.27,7 -9.66,7.05c-8.85,0 -53.12,0 -132.79,0c-56.75,-64.69 -88.27,-100.62 -94.58,-107.81c-2.92,-2.12 -10.36,-4.85 -16.62,-6.11c-19.45,0 -116.7,0 -291.75,0l-46.49,25.8l-141.61,0c-36.88,0 -57.37,0 -61.47,0c-2.36,-0.16 -4.26,-2.06 -4.23,-4.25c0,-8.59 0,-77.3 0,-85.89c-0.12,-2.35 1.21,-4.41 2.97,-4.6c3.36,0 30.16,0 33.51,0c31.56,15.31 70.26,34.24 86.56,42.35c0,0 142.76,0 158.62,0z"/>
  <path fill="none" stroke="#ff9900" id="path2" d="m192.71,0.68c-1.80029,0.60011 -2.29558,2.5304 -2.32,4.26l0,72.89c-0.16173,2.51426 1.48319,4.17866 3.88,4.55l215.55,0l14.78,-9.13l120.61,0c3.02128,0.88902 6.2931,2.38161 8.09,5.1l103.52,117.96l132.11,0c3.76421,0.01324 8.60245,-1.75453 8.95,-6.06l-0.03,-107.64c-0.30132,-4.38705 -5.13145,-5.99738 -8.88,-6.15l-153.21,0c-9.6924,-0.53943 -20.78418,-6.94787 -28.09,-10.81c-28.65443,-16.46069 -57.42229,-32.76718 -86.05,-49.25c-5.09501,-2.84747 -11.65895,-1.7235 -16.89,0.07l-86.28,0l-7.98,-7.44l-67.45,0c-6.52426,5.85042 -16.70357,6.31345 -23,-0.07l-15.33,-8.28l-111.98,0z"/>
 </g>
</svg>